<svg width="211" height="59" viewBox="0 0 211 59" fill="none" xmlns="http://www.w3.org/2000/svg">
<path d="M58.7532 41.6178V17.1356C58.7529 12.5911 56.9475 8.23292 53.7341 5.01951C50.5207 1.80609 46.1624 0.000658336 41.618 0.000366211H17.1352C12.5907 0.000658336 8.23248 1.80609 5.01907 5.01951C1.80566 8.23292 0.000292125 12.5911 0 17.1356V41.6179C0.000895524 45.848 1.56646 49.9283 4.39539 53.0734C7.22432 56.2185 11.1166 58.206 15.3231 58.6534L33.2789 44.0617H14.0287V37.0435L33.2789 21.4042H14.7888V14.6846H44.7245V21.7072L25.4742 37.3492H44.7245V44.3674L27.0219 58.7503H41.618C46.1621 58.7505 50.5202 56.9457 53.7337 53.7327C56.9471 50.5198 58.7527 46.1619 58.7532 41.6178" fill="#BB95F1"/>
<path d="M78.0254 0.000555259H85.081C88.1709 -0.0380002 90.5504 1.93386 90.5119 5.12295C90.5503 8.32856 88.1709 10.2508 85.081 10.2287H80.212V17.0366H78.0254V0.000555259ZM84.7176 8.23487C87.0088 8.23487 88.3251 7.16088 88.3251 5.12295C88.3251 3.07951 87.0087 1.99442 84.7176 1.99442H80.212V8.23487H84.7176Z" fill="black"/>
<path d="M97.865 4.63271C101.076 4.57212 103.681 7.28202 103.632 10.9558C103.681 14.6241 101.076 17.334 97.865 17.2734C94.6815 17.334 92.0707 14.6241 92.1148 10.9558C92.0707 7.28202 94.6815 4.57212 97.865 4.63271ZM97.9752 15.5384C100.03 15.5384 101.55 13.8034 101.55 10.9558C101.55 8.1027 100.03 6.36773 97.9752 6.36773H97.7604C95.706 6.36773 94.1858 8.10265 94.1858 10.9558C94.1858 13.8034 95.706 15.5384 97.7604 15.5384H97.9752Z" fill="black"/>
<path d="M111.629 4.63269C112.229 4.58489 112.832 4.65636 113.403 4.843C113.975 5.02963 114.504 5.32771 114.96 5.72002C115.416 6.11233 115.789 6.59107 116.059 7.12861C116.329 7.66615 116.489 8.25179 116.531 8.85173H114.466C114.372 8.16725 114.05 7.53457 113.551 7.0562C113.061 6.59501 112.407 6.3474 111.734 6.3677H111.519C109.178 6.33466 107.917 8.47172 107.944 10.9558C107.917 13.4344 109.178 15.5769 111.519 15.5384H111.734C112.066 15.5489 112.396 15.4935 112.706 15.3753C113.016 15.2571 113.3 15.0785 113.54 14.8499C114.034 14.3666 114.359 13.7368 114.466 13.0543H116.531C116.435 14.2616 115.866 15.3822 114.948 16.1723C114.03 16.9624 112.837 17.3581 111.629 17.2734C108.038 17.323 105.84 14.5415 105.873 10.9558C105.84 7.36462 108.038 4.58311 111.629 4.63269" fill="black"/>
<path d="M124.485 4.6327C125.084 4.58488 125.687 4.65631 126.259 4.84295C126.831 5.02958 127.36 5.32765 127.816 5.71997C128.271 6.11229 128.645 6.59108 128.915 7.12863C129.184 7.66618 129.345 8.25181 129.387 8.85175H127.321C127.228 8.16728 126.905 7.53459 126.407 7.05622C126.164 6.82745 125.879 6.64885 125.567 6.5307C125.255 6.41255 124.923 6.35718 124.589 6.36772H124.375C122.034 6.33467 120.772 8.47174 120.8 10.9558C120.772 13.4344 122.034 15.577 124.375 15.5384H124.589C124.921 15.5494 125.252 15.4943 125.562 15.3761C125.872 15.2578 126.156 15.079 126.396 14.8499C126.89 14.3666 127.214 13.7368 127.321 13.0543H129.387C129.291 14.2617 128.722 15.3822 127.804 16.1723C126.886 16.9624 125.693 17.3582 124.485 17.2735C120.893 17.323 118.696 14.5415 118.729 10.9558C118.696 7.36464 120.893 4.58313 124.485 4.6327Z" fill="black"/>
<path d="M143.091 4.86951V17.0366H141.02V7.10576L135.154 17.0366H132.312V4.86951H134.377V14.8995L140.381 4.86951" fill="black"/>
<path d="M157.593 4.86949V17.0366H155.527V7.10575L149.661 17.0366H146.819V4.86949H148.885V14.8995L154.883 4.86949H157.593ZM150.35 0.000488281C150.455 1.28384 151.06 1.86769 152.118 1.86769C153.219 1.86769 153.803 1.25079 153.891 0.000488281H155.693C155.682 2.18164 154.365 3.20608 152.118 3.20608C149.871 3.20608 148.549 2.19816 148.538 0.000488281H150.35Z" fill="black"/>
<path d="M166.351 4.63274C166.951 4.58485 167.554 4.65624 168.126 4.84278C168.698 5.02933 169.228 5.32734 169.684 5.71961C170.14 6.11187 170.514 6.59059 170.785 7.12819C171.055 7.6658 171.216 8.25158 171.259 8.85178H169.193C169.098 8.16675 168.773 7.53412 168.273 7.05625C168.032 6.82756 167.747 6.64897 167.436 6.5308C167.125 6.41264 166.794 6.35723 166.461 6.36776H166.247C163.906 6.33471 162.644 8.47177 162.666 10.9559C162.644 13.4344 163.906 15.577 166.247 15.5384H166.461C166.792 15.5489 167.122 15.4935 167.431 15.3753C167.74 15.2571 168.023 15.0785 168.262 14.8499C168.76 14.3685 169.086 13.7382 169.193 13.0544H171.259C171.161 14.2622 170.591 15.3828 169.672 16.1728C168.753 16.9628 167.56 17.3583 166.351 17.2735C162.766 17.323 160.568 14.5415 160.601 10.9559C160.568 7.36467 162.766 4.58317 166.351 4.63274Z" fill="black"/>
<path d="M178.375 11.132L176.249 13.2251V17.0366H174.184V4.86951H176.249V10.9063L182.192 4.86951H184.781L179.873 9.68344L185.018 17.0366H182.512" fill="black"/>
<path d="M191.55 4.63271C194.761 4.57212 197.361 7.28202 197.317 10.9558C197.361 14.6241 194.761 17.334 191.55 17.2734C188.366 17.334 185.755 14.6241 185.799 10.9558C185.755 7.28202 188.366 4.57212 191.55 4.63271ZM191.66 15.5384C193.714 15.5384 195.235 13.8034 195.235 10.9558C195.235 8.1027 193.714 6.36773 191.66 6.36773H191.445C189.39 6.36773 187.87 8.10265 187.87 10.9558C187.87 13.8034 189.39 15.5384 191.445 15.5384H191.66Z" fill="black"/>
<path d="M205.143 4.63266C205.84 4.61521 206.534 4.74495 207.178 5.01341C207.822 5.28187 208.402 5.68299 208.881 6.1907C209.359 6.69842 209.726 7.30133 209.956 7.96007C210.186 8.6188 210.274 9.31862 210.216 10.0139V11.2422H201.623C201.7 14.1008 203.468 15.5658 205.17 15.5383H205.347C205.981 15.5885 206.612 15.4068 207.123 15.027C207.633 14.6471 207.988 14.0949 208.123 13.4728H210.194C209.967 14.6074 209.334 15.6201 208.413 16.3201C207.491 17.0201 206.346 17.3591 205.192 17.2733C202.113 17.3119 199.525 15.0316 199.558 10.9282C199.497 6.86333 202.246 4.5941 205.143 4.63266V4.63266ZM208.15 9.57876C208.079 7.48575 206.834 6.36766 205.236 6.36766H205.027C203.578 6.36766 202.113 7.25992 201.733 9.57876H208.15Z" fill="black"/>
<path d="M82.6464 25.4894C85.8574 25.4316 88.4571 28.1404 88.4077 31.8109C88.4572 35.4814 85.8575 38.1902 82.6464 38.1318C79.4628 38.1902 76.8521 35.4814 76.8961 31.8109C76.8521 28.1404 79.4628 25.4316 82.6464 25.4894ZM82.7565 36.3957C84.811 36.3957 86.3312 34.6618 86.3312 31.8109C86.3312 28.9578 84.811 27.2239 82.7565 27.2239H82.5417C80.4872 27.2239 78.9615 28.9578 78.9615 31.8109C78.9615 34.6618 80.4872 36.3957 82.5417 36.3957H82.7565Z" fill="black"/>
<path d="M91.2999 26.4041C91.4184 25.3974 91.7982 24.4393 92.4014 23.6247C92.9297 23.0402 93.5873 22.5873 94.3218 22.3022C95.0563 22.0171 95.8472 21.9077 96.6314 21.9829H99.3304C100.173 21.9829 100.47 21.735 100.47 21.107V20.6995H102.42V21.4155C102.42 23.1147 101.704 23.79 99.6277 23.79H96.5489C93.8389 23.79 92.864 25.2298 92.7484 28.4481C93.2467 27.7499 93.9021 27.1786 94.6617 26.7803C95.4214 26.3819 96.264 26.1675 97.1217 26.1546C97.8623 26.15 98.5958 26.2995 99.2755 26.5937C99.9552 26.888 100.566 27.3205 101.07 27.8636C101.573 28.4068 101.958 29.0488 102.2 29.7488C102.442 30.4488 102.536 31.1915 102.475 31.9296C102.525 35.398 100.123 38.1905 96.7857 38.1321C93.0293 38.1321 91.0245 35.387 91.0245 30.8496C91.0033 29.3629 91.0953 27.8767 91.2999 26.4041V26.4041ZM96.8958 36.4197C99.0329 36.4671 100.41 34.4253 100.388 31.977C100.388 29.5067 98.9613 27.7706 96.8958 27.7706H96.7362C96.2319 27.787 95.736 27.9057 95.2791 28.1197C94.8221 28.3337 94.4136 28.6385 94.0781 29.0155C93.7427 29.3925 93.4874 29.8337 93.3279 30.3125C93.1685 30.7912 93.1082 31.2974 93.1506 31.8002C93.1506 34.509 94.5661 36.4197 96.7362 36.4197H96.8958Z" fill="black"/>
<path d="M124.198 36.1931V41.148H122.248V37.8928H105.449V25.7258H107.515V36.1931H112.742V25.7258H114.807V36.1931H120.051V25.7258H122.116V36.1931" fill="black"/>
<path d="M131.298 25.4897C131.996 25.4724 132.69 25.6023 133.334 25.8709C133.979 26.1395 134.559 26.5408 135.038 27.0486C135.517 27.5564 135.884 28.1594 136.115 28.8184C136.345 29.4773 136.434 30.1775 136.377 30.8732V32.0954H127.784C127.856 34.959 129.629 36.4197 131.326 36.3982H131.502C132.137 36.4474 132.769 36.2651 133.28 35.8851C133.791 35.505 134.148 34.9529 134.284 34.3305H136.349C136.123 35.4656 135.49 36.4788 134.569 37.1791C133.648 37.8794 132.502 38.2184 131.348 38.1321C128.269 38.169 125.68 35.886 125.719 31.7853C125.658 27.7232 128.401 25.4533 131.298 25.4897V25.4897ZM134.311 30.432C134.24 28.3406 132.989 27.2242 131.397 27.2242H131.183C129.734 27.2242 128.269 28.1148 127.894 30.432H134.311Z" fill="black"/>
<path d="M144.468 25.4895C145.067 25.4422 145.67 25.514 146.242 25.7006C146.814 25.8873 147.343 26.1852 147.799 26.5772C148.255 26.9692 148.629 27.4475 148.9 27.9846C149.17 28.5217 149.332 29.107 149.375 29.7069H147.304C147.212 29.0223 146.889 28.3895 146.39 27.9124C146.147 27.6832 145.862 27.5044 145.55 27.3862C145.238 27.2681 144.906 27.2129 144.572 27.2239H144.358C142.017 27.1892 140.761 29.3279 140.783 31.8109C140.761 34.2939 142.017 36.4326 144.358 36.3957H144.572C144.904 36.4072 145.235 36.3522 145.545 36.234C145.855 36.1158 146.139 35.9367 146.379 35.7072C146.874 35.2255 147.199 34.5956 147.304 33.9128H149.375C149.277 35.1203 148.707 36.2405 147.788 37.0303C146.869 37.8202 145.676 38.2159 144.468 38.1318C140.877 38.1792 138.679 35.3977 138.717 31.8109C138.679 28.222 140.876 25.4421 144.468 25.4895Z" fill="black"/>
<path d="M160.794 27.4267H156.751V37.8929H154.685V27.4267H150.643V25.728H160.794" fill="black"/>
<path d="M163.013 25.7288H168.741C171.236 25.7288 172.613 27.0474 172.613 28.8159C172.638 29.4794 172.43 30.1308 172.024 30.6564C171.619 31.1821 171.042 31.5488 170.393 31.6927C171.082 31.749 171.725 32.0625 172.193 32.5708C172.661 33.0791 172.922 33.745 172.922 34.4362C172.96 36.3744 171.22 37.9299 168.857 37.8935H163.013V25.7288ZM168.488 30.8836C168.75 30.9163 169.016 30.8918 169.268 30.8117C169.52 30.7315 169.752 30.5977 169.947 30.4194C170.143 30.241 170.297 30.0225 170.4 29.7788C170.502 29.535 170.551 29.2719 170.542 29.0076C170.542 27.9016 169.749 27.3079 168.311 27.3079H165.117V30.8836H168.488ZM168.455 36.3144C170.068 36.3144 170.845 35.6023 170.845 34.3178C170.845 33.2614 170.057 32.547 168.526 32.547H165.117V36.3144H168.455Z" fill="black"/>
<path d="M180.952 25.4894C184.163 25.4316 186.763 28.1404 186.713 31.8109C186.763 35.4814 184.163 38.1902 180.952 38.1318C177.768 38.1902 175.158 35.4814 175.202 31.8109C175.158 28.1404 177.768 25.4316 180.952 25.4894ZM181.062 36.3957C183.116 36.3957 184.637 34.6618 184.637 31.8109C184.637 28.9578 183.116 27.2239 181.062 27.2239H180.847C178.793 27.2239 177.273 28.9578 177.273 31.8109C177.273 34.6618 178.793 36.3957 180.847 36.3957H181.062Z" fill="black"/>
<path d="M89.3829 51.396C89.9849 52.0702 90.301 52.9522 90.2641 53.8553C90.2641 57.0637 87.6753 58.9871 83.7151 58.9871C79.3803 58.9871 76.9348 56.8979 76.709 53.1542H79.9862C80.2836 55.1398 81.5064 56.0778 83.7866 56.0778C85.8796 56.0778 86.9702 55.2929 86.9702 53.7843C86.9702 52.3582 85.9623 51.6224 84.051 51.6224H81.7213V48.6982H83.886C85.7366 48.6982 86.7613 47.8572 86.7613 46.4174C86.7613 45.1462 85.6926 44.3503 83.7428 44.3503C82.8153 44.2867 81.8994 44.585 81.1872 45.1825C80.5874 45.7621 80.2159 46.538 80.1406 47.3686H76.8468C76.8946 46.4195 77.1563 45.4935 77.6124 44.6598C78.131 43.711 78.9034 42.9251 79.8431 42.39C81.0119 41.742 82.3356 41.4259 83.6711 41.4757C87.78 41.4757 90.0383 43.4591 90.0383 46.4174C90.0418 47.2783 89.7517 48.1147 89.216 48.7886C88.6803 49.4626 87.931 49.9339 87.0915 50.1248C87.9664 50.3068 88.7654 50.7501 89.3829 51.396" fill="black"/>
<path d="M93.0342 46.5834H96.1902V51.1836H100.894V46.5834H104.056V58.7504H100.894V53.7371H96.1902V58.7504H93.0342" fill="black"/>
<path d="M106.64 52.6681C106.601 48.5801 109.129 46.3103 111.867 46.3472C112.595 46.2941 113.324 46.4475 113.969 46.79C114.614 47.1325 115.149 47.6501 115.513 48.2832V46.5835H118.686V58.7505H115.513V57.0507C115.139 57.6746 114.601 58.1847 113.959 58.5262C113.317 58.8678 112.593 59.028 111.867 58.9895C109.355 59.0237 106.579 56.7302 106.64 52.6681V52.6681ZM112.743 56.4333C114.279 56.4333 115.513 54.9963 115.513 52.6681C115.513 50.3382 114.279 48.9028 112.743 48.9028H112.555C111.068 48.8665 109.774 50.5404 109.796 52.6444C109.774 54.7699 111.068 56.4696 112.555 56.4333H112.743Z" fill="black"/>
<path d="M121.94 46.5834H125.102V51.1836H129.806V46.5834H132.967V58.7504H129.806V53.7371H125.102V58.7504H121.94" fill="black"/>
<path d="M148.054 46.5834V58.7504H144.881V49.9829L140.436 58.7504H136.223V46.5834H139.384V55.2694L143.812 46.5834" fill="black"/>
<path d="M150.631 52.6679C150.598 49.0322 152.856 46.2997 156.42 46.347C159.972 46.3101 162.005 48.9715 161.966 52.5236C161.966 52.7627 161.955 53.1432 161.917 53.6665H153.699C153.73 54.3862 154.028 55.0684 154.535 55.58C155.043 56.0915 155.722 56.3957 156.442 56.4331H156.645C157.124 56.4661 157.599 56.3312 157.989 56.0516C158.38 55.7721 158.66 55.3654 158.783 54.9014H161.917C161.639 56.1267 160.932 57.2121 159.924 57.9615C158.916 58.7109 157.673 59.0748 156.42 58.9872C155.616 58.9807 154.822 58.8086 154.087 58.4818C153.352 58.1549 152.693 57.6803 152.15 57.0874C151.607 56.4945 151.192 55.7962 150.93 55.0358C150.669 54.2755 150.567 53.4694 150.631 52.6679V52.6679ZM158.904 51.2309C158.894 50.9127 158.822 50.5995 158.69 50.3095C158.559 50.0195 158.371 49.7586 158.138 49.5417C157.905 49.3249 157.631 49.1566 157.332 49.0465C157.033 48.9364 156.716 48.8868 156.398 48.9005H156.205C155.887 48.8864 155.569 48.9356 155.27 49.0455C154.971 49.1555 154.697 49.3238 154.463 49.5407C154.23 49.7576 154.043 50.0188 153.911 50.309C153.78 50.5992 153.708 50.9125 153.699 51.2309H158.904Z" fill="black"/>
</svg>
