<svg width="166" height="228" viewBox="0 0 166 228" fill="none" xmlns="http://www.w3.org/2000/svg">
<path d="M3.34734 218.332C0.972185 219.741 0.188612 222.808 1.59719 225.183C3.00576 227.558 6.07308 228.342 8.44824 226.933L3.34734 218.332ZM68.3478 132.17L73.3405 131.9L68.3478 132.17ZM59.0078 174.73L58.6919 169.74L59.0078 174.73ZM143.547 5.22355L148.505 4.57705C148.237 2.52278 146.73 0.846454 144.716 0.362114C142.701 -0.122226 140.597 0.685747 139.424 2.39367L143.547 5.22355ZM104.121 44.9726C101.823 46.5043 101.203 49.6087 102.734 51.9063C104.266 54.204 107.37 54.8248 109.668 53.2931L104.121 44.9726ZM156.145 58.6943C157.007 61.3176 159.833 62.7451 162.456 61.8827C165.079 61.0203 166.507 58.1946 165.644 55.5713L156.145 58.6943ZM8.44824 226.933C24.4961 217.416 76.5766 191.873 73.3405 131.9L63.3551 132.439C66.2124 185.393 20.7573 208.007 3.34734 218.332L8.44824 226.933ZM73.3405 131.9C72.7751 121.421 71.086 113.633 68.2768 108.367C65.3392 102.86 60.7522 99.5323 54.9889 99.9793C49.9296 100.372 45.365 103.637 41.743 107.423C37.9833 111.352 34.5454 116.561 31.7833 122.262C26.3468 133.485 22.9358 147.898 26.0539 159.701C27.6575 165.771 31.0355 171.266 36.8052 174.996C42.5105 178.685 50.0264 180.308 59.3236 179.72L58.6919 169.74C50.8281 170.237 45.6273 168.792 42.2346 166.599C38.9063 164.447 36.805 161.245 35.7222 157.147C33.4674 148.612 35.855 136.795 40.783 126.622C43.2031 121.626 46.0889 117.346 48.9686 114.336C51.986 111.182 54.3765 110.057 55.7622 109.949C56.4441 109.896 57.7921 109.959 59.4538 113.074C61.2439 116.429 62.8184 122.493 63.3551 132.439L73.3405 131.9ZM59.3236 179.72C74.8467 178.737 87.8132 170.152 98.4336 157.776C109.034 145.423 117.636 128.926 124.545 111.127C138.369 75.5087 145.847 33.5193 148.524 5.70253L138.57 4.74457C135.948 31.9814 128.614 73.0071 115.222 107.509C108.523 124.77 100.416 140.11 90.8448 151.264C81.2938 162.393 70.6264 168.984 58.6919 169.74L59.3236 179.72ZM143.547 5.22355C139.424 2.39367 139.425 2.39356 139.425 2.39359C139.424 2.39378 139.424 2.39394 139.424 2.39432C139.424 2.39508 139.423 2.39638 139.421 2.39822C139.419 2.40191 139.415 2.40775 139.409 2.41571C139.398 2.43165 139.382 2.45609 139.359 2.48879C139.314 2.55419 139.246 2.65263 139.156 2.78218C138.977 3.04127 138.71 3.42469 138.366 3.91689C137.678 4.90143 136.679 6.3204 135.441 8.04955C132.964 11.5105 129.543 16.2013 125.755 21.1326C121.961 26.0726 117.836 31.2066 113.949 35.5723C109.975 40.0362 106.546 43.3561 104.121 44.9726L109.668 53.2931C113.243 50.9096 117.395 46.7408 121.418 42.2217C125.529 37.6044 129.817 32.261 133.686 27.2238C137.562 22.1777 141.053 17.3913 143.573 13.8692C144.834 12.1068 145.855 10.6579 146.561 9.6474C146.915 9.14208 147.19 8.74621 147.377 8.47538C147.471 8.33996 147.543 8.23579 147.592 8.16482C147.616 8.12933 147.635 8.10214 147.648 8.08349C147.654 8.07417 147.659 8.06698 147.663 8.06196C147.665 8.05945 147.666 8.05748 147.667 8.05605C147.667 8.05534 147.668 8.05468 147.668 8.05433C147.668 8.0538 147.669 8.05342 143.547 5.22355ZM138.589 5.87004C138.94 8.56742 140.113 12.7189 141.532 17.2011C142.993 21.8172 144.855 27.2024 146.762 32.5645C150.628 43.433 154.597 53.9872 156.145 58.6943L165.644 55.5713C164.056 50.7386 159.922 39.7223 156.184 29.2131C154.289 23.8864 152.474 18.6309 151.065 14.1827C149.615 9.60044 148.725 6.26372 148.505 4.57705L138.589 5.87004Z" fill="#F7F532"/>
<path d="M3.34734 218.332C0.972185 219.741 0.188612 222.808 1.59719 225.183C3.00576 227.558 6.07308 228.342 8.44824 226.933L3.34734 218.332ZM68.3478 132.17L73.3405 131.9L68.3478 132.17ZM59.0078 174.73L58.6919 169.74L59.0078 174.73ZM143.547 5.22355L148.505 4.57705C148.237 2.52278 146.73 0.846454 144.716 0.362114C142.701 -0.122226 140.597 0.685747 139.424 2.39367L143.547 5.22355ZM104.121 44.9726C101.823 46.5043 101.203 49.6087 102.734 51.9063C104.266 54.204 107.37 54.8248 109.668 53.2931L104.121 44.9726ZM156.145 58.6943C157.007 61.3176 159.833 62.7451 162.456 61.8827C165.079 61.0203 166.507 58.1946 165.644 55.5713L156.145 58.6943ZM8.44824 226.933C24.4961 217.416 76.5766 191.873 73.3405 131.9L63.3551 132.439C66.2124 185.393 20.7573 208.007 3.34734 218.332L8.44824 226.933ZM73.3405 131.9C72.7751 121.421 71.086 113.633 68.2768 108.367C65.3392 102.86 60.7522 99.5323 54.9889 99.9793C49.9296 100.372 45.365 103.637 41.743 107.423C37.9833 111.352 34.5454 116.561 31.7833 122.262C26.3468 133.485 22.9358 147.898 26.0539 159.701C27.6575 165.771 31.0355 171.266 36.8052 174.996C42.5105 178.685 50.0264 180.308 59.3236 179.72L58.6919 169.74C50.8281 170.237 45.6273 168.792 42.2346 166.599C38.9063 164.447 36.805 161.245 35.7222 157.147C33.4674 148.612 35.855 136.795 40.783 126.622C43.2031 121.626 46.0889 117.346 48.9686 114.336C51.986 111.182 54.3765 110.057 55.7622 109.949C56.4441 109.896 57.7921 109.959 59.4538 113.074C61.2439 116.429 62.8184 122.493 63.3551 132.439L73.3405 131.9ZM59.3236 179.72C74.8467 178.737 87.8132 170.152 98.4336 157.776C109.034 145.423 117.636 128.926 124.545 111.127C138.369 75.5087 145.847 33.5193 148.524 5.70253L138.57 4.74457C135.948 31.9814 128.614 73.0071 115.222 107.509C108.523 124.77 100.416 140.11 90.8448 151.264C81.2938 162.393 70.6264 168.984 58.6919 169.74L59.3236 179.72ZM143.547 5.22355C139.424 2.39367 139.425 2.39356 139.425 2.39359C139.424 2.39378 139.424 2.39394 139.424 2.39432C139.424 2.39508 139.423 2.39638 139.421 2.39822C139.419 2.40191 139.415 2.40775 139.409 2.41571C139.398 2.43165 139.382 2.45609 139.359 2.48879C139.314 2.55419 139.246 2.65263 139.156 2.78218C138.977 3.04127 138.71 3.42469 138.366 3.91689C137.678 4.90143 136.679 6.3204 135.441 8.04955C132.964 11.5105 129.543 16.2013 125.755 21.1326C121.961 26.0726 117.836 31.2066 113.949 35.5723C109.975 40.0362 106.546 43.3561 104.121 44.9726L109.668 53.2931C113.243 50.9096 117.395 46.7408 121.418 42.2217C125.529 37.6044 129.817 32.261 133.686 27.2238C137.562 22.1777 141.053 17.3913 143.573 13.8692C144.834 12.1068 145.855 10.6579 146.561 9.6474C146.915 9.14208 147.19 8.74621 147.377 8.47538C147.471 8.33996 147.543 8.23579 147.592 8.16482C147.616 8.12933 147.635 8.10214 147.648 8.08349C147.654 8.07417 147.659 8.06698 147.663 8.06196C147.665 8.05945 147.666 8.05748 147.667 8.05605C147.667 8.05534 147.668 8.05468 147.668 8.05433C147.668 8.0538 147.669 8.05342 143.547 5.22355ZM138.589 5.87004C138.94 8.56742 140.113 12.7189 141.532 17.2011C142.993 21.8172 144.855 27.2024 146.762 32.5645C150.628 43.433 154.597 53.9872 156.145 58.6943L165.644 55.5713C164.056 50.7386 159.922 39.7223 156.184 29.2131C154.289 23.8864 152.474 18.6309 151.065 14.1827C149.615 9.60044 148.725 6.26372 148.505 4.57705L138.589 5.87004Z" fill="#579AEA"/>
</svg>
